# xmcd CD database file
#
# Track frame offsets:
#	150
#	37364
#	69363
#	92254
#	113070
#	136140
#	153753
#	178763
#	230321
#
# Disc length: 3300 seconds
#
# Revision: 0
# Processed by: cddbd v1.5.2PL0 Copyright (c) Steve Scherf et al.
# Submitted via: CDex 1.82
#
DISCID=690ce209
DTITLE=No Square - Paris - Buenos Aires
DYEAR=2014
DGENRE=Jazz
TTITLE0=Yggdrasil
TTITLE1=Jeux de Chaises
TTITLE2=Hela
TTITLE3=For Them
TTITLE4=Le Cercle de Brodgar
TTITLE5=Chatroulette
TTITLE6=Chinatown
TTITLE7=Bushido
TTITLE8=Fukushima
EXTD=YEAR: 2014
EXTT0=
EXTT1=
EXTT2=
EXTT3=
EXTT4=
EXTT5=
EXTT6=
EXTT7=
EXTT8=
PLAYORDER=
